<svg aria-hidden="true" style="position: absolute; width: 0; height: 0; overflow: hidden;" version="1.1" xmlns="http://www.w3.org/2000/svg" xmlns:xlink="http://www.w3.org/1999/xlink">
<defs>
<symbol id="logo" viewBox="0 0 232 32">
<path fill="#2196f3" style="fill: var(--color1, #2196f3)" d="M13.27 0.947h5.283l3.328 9.776 3.328-9.776h5.325l-5.034 13.437 3.744 9.443 8.362-22.963h6.24l-12.022 29.536h-4.826l-5.117-12.397-5.117 12.397h-4.826l-11.939-29.536h6.157l8.403 22.963 3.661-9.443-4.95-13.437zM55.007 30.816c-1.747 0-3.328-0.291-4.742-0.874-1.414-0.61-2.621-1.428-3.619-2.454s-1.775-2.219-2.33-3.578c-0.527-1.359-0.79-2.787-0.79-4.285 0-1.553 0.264-3.009 0.79-4.368 0.527-1.387 1.29-2.593 2.288-3.619 0.998-1.054 2.205-1.886 3.619-2.496 1.442-0.61 3.051-0.915 4.826-0.915s3.356 0.305 4.742 0.915c1.414 0.61 2.607 1.428 3.578 2.454 0.998 1.026 1.747 2.219 2.246 3.578 0.527 1.359 0.79 2.773 0.79 4.243 0 0.36-0.014 0.707-0.042 1.040 0 0.333-0.028 0.61-0.083 0.832h-16.848c0.083 0.86 0.291 1.622 0.624 2.288s0.763 1.234 1.29 1.706c0.527 0.472 1.123 0.832 1.789 1.082s1.359 0.374 2.080 0.374c1.109 0 2.149-0.264 3.12-0.79 0.998-0.555 1.678-1.276 2.038-2.163l4.784 1.331c-0.804 1.664-2.094 3.037-3.869 4.118-1.747 1.054-3.841 1.581-6.282 1.581zM60.664 17.67c-0.139-1.636-0.749-2.94-1.83-3.91-1.054-0.998-2.344-1.498-3.869-1.498-0.749 0-1.456 0.139-2.122 0.416-0.638 0.25-1.206 0.61-1.706 1.082s-0.915 1.040-1.248 1.706c-0.305 0.666-0.485 1.4-0.541 2.205h11.315zM83.446 30.816c-1.664 0-3.148-0.374-4.451-1.123s-2.33-1.775-3.078-3.078v3.786h-4.867v-30.368h5.574v12.397c0.776-1.331 1.789-2.357 3.037-3.078 1.276-0.749 2.759-1.123 4.451-1.123 1.414 0 2.704 0.305 3.869 0.915s2.163 1.428 2.995 2.454c0.86 1.026 1.511 2.233 1.955 3.619 0.471 1.387 0.707 2.843 0.707 4.368 0 1.581-0.264 3.051-0.79 4.41-0.499 1.359-1.206 2.552-2.122 3.578-0.915 0.998-1.997 1.789-3.245 2.371s-2.593 0.874-4.035 0.874zM81.907 26.074c0.887 0 1.706-0.166 2.454-0.499 0.749-0.36 1.387-0.832 1.914-1.414s0.929-1.262 1.206-2.038c0.305-0.776 0.458-1.608 0.458-2.496s-0.139-1.733-0.416-2.538c-0.277-0.804-0.68-1.511-1.206-2.122-0.499-0.61-1.096-1.095-1.789-1.456s-1.456-0.541-2.288-0.541c-1.248 0-2.371 0.416-3.37 1.248-0.971 0.804-1.72 1.803-2.246 2.995v5.2c0.194 0.555 0.471 1.054 0.832 1.498 0.388 0.444 0.818 0.832 1.29 1.165 0.471 0.305 0.984 0.555 1.539 0.749 0.555 0.166 1.095 0.25 1.622 0.25z"></path>
<path fill="#000" style="fill: var(--color2, #000)" d="M116.8 8.602c-0.194-0.194-0.555-0.458-1.082-0.79-0.499-0.333-1.123-0.652-1.872-0.957-0.721-0.333-1.512-0.61-2.371-0.832s-1.733-0.333-2.621-0.333c-1.581 0-2.76 0.291-3.536 0.874s-1.165 1.401-1.165 2.454c0 0.61 0.139 1.123 0.416 1.539 0.305 0.388 0.735 0.735 1.29 1.040s1.248 0.582 2.080 0.832c0.86 0.25 1.844 0.513 2.954 0.79 1.442 0.388 2.746 0.804 3.91 1.248 1.192 0.444 2.191 0.998 2.995 1.664 0.832 0.666 1.47 1.47 1.914 2.413 0.444 0.915 0.666 2.052 0.666 3.411 0 1.581-0.305 2.94-0.915 4.077-0.582 1.109-1.387 2.011-2.413 2.704-0.998 0.693-2.163 1.206-3.494 1.539-1.304 0.305-2.676 0.458-4.118 0.458-2.219 0-4.41-0.333-6.573-0.998s-4.105-1.608-5.824-2.829l2.538-4.95c0.25 0.25 0.693 0.582 1.331 0.998 0.666 0.388 1.442 0.79 2.33 1.206 0.887 0.388 1.872 0.721 2.954 0.998s2.191 0.416 3.328 0.416c3.162 0 4.742-1.012 4.742-3.037 0-0.638-0.18-1.179-0.541-1.622s-0.874-0.832-1.539-1.165-1.47-0.638-2.413-0.915c-0.943-0.277-1.997-0.582-3.162-0.915-1.414-0.388-2.649-0.804-3.702-1.248-1.026-0.472-1.886-1.012-2.579-1.622-0.693-0.638-1.22-1.359-1.581-2.163-0.333-0.832-0.499-1.817-0.499-2.954 0-1.498 0.277-2.829 0.832-3.994s1.317-2.135 2.288-2.912c0.998-0.777 2.149-1.359 3.453-1.747 1.303-0.416 2.704-0.624 4.202-0.624 2.080 0 3.994 0.333 5.741 0.998 1.747 0.638 3.272 1.401 4.576 2.288l-2.538 4.659zM138.242 29.277c-0.749 0.333-1.664 0.666-2.746 0.998s-2.219 0.499-3.411 0.499c-0.777 0-1.512-0.097-2.205-0.291-0.666-0.194-1.262-0.499-1.789-0.915-0.499-0.444-0.901-0.998-1.206-1.664-0.305-0.693-0.458-1.525-0.458-2.496v-12.522h-2.87v-4.285h2.87v-7.072h5.574v7.072h4.576v4.285h-4.576v10.65c0 0.776 0.194 1.331 0.582 1.664 0.416 0.305 0.915 0.458 1.498 0.458s1.151-0.097 1.706-0.291c0.555-0.194 0.998-0.36 1.331-0.499l1.123 4.41zM149.049 30.816c-2.246 0-3.952-0.721-5.117-2.163s-1.747-3.578-1.747-6.406v-13.645h5.574v12.438c0 3.356 1.206 5.034 3.619 5.034 1.082 0 2.122-0.319 3.12-0.957 1.026-0.666 1.858-1.664 2.496-2.995v-13.52h5.575v15.392c0 0.582 0.096 0.998 0.291 1.248 0.221 0.25 0.568 0.388 1.040 0.416v4.742c-0.555 0.111-1.027 0.18-1.414 0.208-0.362 0.028-0.694 0.042-0.998 0.042-0.998 0-1.817-0.222-2.455-0.666-0.61-0.472-0.971-1.109-1.082-1.914l-0.125-1.747c-0.971 1.498-2.219 2.621-3.744 3.37s-3.203 1.123-5.034 1.123zM178.384 30.816c-1.498 0-2.885-0.291-4.16-0.874s-2.371-1.387-3.286-2.413c-0.915-1.026-1.637-2.219-2.163-3.578-0.499-1.387-0.749-2.87-0.749-4.451s0.235-3.051 0.707-4.41c0.499-1.359 1.179-2.551 2.038-3.578s1.886-1.83 3.078-2.413c1.192-0.582 2.496-0.874 3.91-0.874 1.608 0 3.051 0.388 4.326 1.165 1.304 0.777 2.315 1.789 3.037 3.037v-12.397h5.574v23.962c0 0.582 0.098 0.998 0.291 1.248s0.526 0.388 0.998 0.416v4.742c-0.971 0.194-1.762 0.291-2.371 0.291-0.998 0-1.816-0.25-2.454-0.749s-0.998-1.151-1.082-1.955l-0.125-1.373c-0.805 1.387-1.899 2.44-3.286 3.162-1.358 0.693-2.787 1.040-4.285 1.040zM179.84 26.074c0.526 0 1.067-0.083 1.622-0.25 0.555-0.194 1.067-0.458 1.539-0.79s0.888-0.721 1.248-1.165c0.389-0.444 0.68-0.929 0.874-1.456v-5.2c-0.222-0.61-0.541-1.165-0.957-1.664-0.389-0.527-0.846-0.971-1.373-1.331-0.499-0.388-1.040-0.693-1.622-0.915-0.555-0.222-1.109-0.333-1.664-0.333-0.832 0-1.608 0.18-2.33 0.541-0.693 0.361-1.29 0.86-1.789 1.498-0.499 0.61-0.888 1.317-1.165 2.122s-0.416 1.636-0.416 2.496c0 0.915 0.152 1.761 0.458 2.538s0.722 1.456 1.248 2.038c0.526 0.582 1.15 1.040 1.872 1.373 0.749 0.333 1.566 0.499 2.454 0.499zM197.418 30.4v-21.798h5.574v21.798h-5.574zM197.418 5.565v-5.533h5.574v5.533h-5.574zM219.336 30.816c-1.776 0-3.37-0.305-4.784-0.915s-2.621-1.428-3.619-2.454c-0.971-1.054-1.72-2.26-2.246-3.619-0.528-1.359-0.79-2.787-0.79-4.285 0-1.525 0.262-2.968 0.79-4.326 0.526-1.359 1.275-2.551 2.246-3.578 0.998-1.054 2.205-1.886 3.619-2.496s3.008-0.915 4.784-0.915c1.774 0 3.355 0.305 4.742 0.915 1.414 0.61 2.606 1.442 3.578 2.496 0.998 1.026 1.76 2.219 2.288 3.578 0.526 1.359 0.79 2.801 0.79 4.326 0 1.498-0.264 2.926-0.79 4.285-0.528 1.359-1.277 2.565-2.246 3.619-0.971 1.026-2.163 1.844-3.578 2.454s-3.010 0.915-4.784 0.915zM213.637 19.542c0 0.971 0.138 1.858 0.416 2.662 0.304 0.776 0.707 1.456 1.206 2.038 0.526 0.582 1.136 1.040 1.83 1.373 0.693 0.305 1.442 0.458 2.246 0.458 0.803 0 1.552-0.152 2.246-0.458 0.693-0.333 1.29-0.79 1.789-1.373 0.526-0.582 0.928-1.276 1.206-2.080 0.304-0.804 0.458-1.692 0.458-2.662 0-0.943-0.154-1.816-0.458-2.621-0.278-0.804-0.68-1.498-1.206-2.080-0.499-0.582-1.096-1.026-1.789-1.331-0.694-0.333-1.443-0.499-2.246-0.499-0.805 0-1.554 0.166-2.246 0.499-0.694 0.333-1.304 0.79-1.83 1.373-0.499 0.582-0.902 1.276-1.206 2.080-0.278 0.804-0.416 1.678-0.416 2.621z"></path>
</symbol>
<symbol id="linkedin" viewBox="0 0 32 32">
<path d="M31.992 32l0.008-0.001v-11.736c0-5.741-1.236-10.164-7.948-10.164-3.227 0-5.392 1.771-6.276 3.449h-0.093v-2.913h-6.364v21.364h6.627v-10.579c0-2.785 0.528-5.479 3.977-5.479 3.399 0 3.449 3.179 3.449 5.657v10.401h6.62z"></path>
<path d="M0.528 10.636h6.635v21.364h-6.635v-21.364z"></path>
<path d="M3.843 0c-2.121 0-3.843 1.721-3.843 3.843s1.721 3.879 3.843 3.879c2.121 0 3.843-1.757 3.843-3.879-0.001-2.121-1.723-3.843-3.843-3.843z"></path>
</symbol>
<symbol id="facebook" viewBox="0 0 18 32">
<path d="M13.329 5.313h2.921v-5.088c-0.504-0.069-2.237-0.225-4.256-0.225-4.212 0-7.097 2.649-7.097 7.519v4.481h-4.648v5.688h4.648v14.312h5.699v-14.311h4.46l0.708-5.688h-5.169v-3.919c0.001-1.644 0.444-2.769 2.735-2.769z"></path>
</symbol>
<symbol id="twitter" viewBox="0 0 36 32">
<path d="M35.556 4.976c-1.322 0.58-2.731 0.964-4.2 1.151 1.511-0.902 2.665-2.32 3.207-4.029-1.409 0.84-2.964 1.433-4.622 1.764-1.338-1.424-3.244-2.307-5.324-2.307-4.035 0-7.284 3.276-7.284 7.291 0 0.578 0.049 1.133 0.169 1.662-6.060-0.296-11.422-3.2-15.024-7.624-0.629 1.091-0.998 2.34-0.998 3.684 0 2.524 1.3 4.762 3.238 6.058-1.171-0.022-2.32-0.362-3.293-0.898 0 0.022 0 0.051 0 0.080 0 3.542 2.527 6.484 5.84 7.162-0.593 0.162-1.24 0.24-1.911 0.24-0.467 0-0.938-0.026-1.38-0.124 0.944 2.887 3.624 5.009 6.811 5.078-2.48 1.94-5.629 3.109-9.038 3.109-0.598 0-1.171-0.026-1.744-0.1 3.229 2.082 7.056 3.271 11.182 3.271 13.413 0 20.747-11.111 20.747-20.742 0-0.322-0.011-0.633-0.027-0.942 1.447-1.027 2.662-2.309 3.653-3.784z"></path>
</symbol>
<symbol id="instagram" viewBox="0 0 32 32">
<path d="M31.969 9.408c-0.075-1.7-0.35-2.869-0.744-3.882-0.406-1.075-1.032-2.038-1.851-2.838-0.8-0.813-1.769-1.444-2.832-1.844-1.019-0.394-2.182-0.669-3.882-0.744-1.713-0.081-2.257-0.1-6.601-0.1s-4.888 0.019-6.595 0.094c-1.7 0.075-2.869 0.35-3.882 0.744-1.075 0.406-2.038 1.031-2.838 1.85-0.813 0.8-1.444 1.769-1.844 2.832-0.394 1.019-0.669 2.182-0.744 3.882-0.081 1.713-0.1 2.257-0.1 6.601s0.019 4.888 0.094 6.595c0.075 1.7 0.35 2.869 0.744 3.882 0.406 1.075 1.038 2.038 1.85 2.838 0.8 0.813 1.769 1.444 2.832 1.844 1.019 0.394 2.182 0.669 3.882 0.744 1.706 0.075 2.25 0.094 6.595 0.094s4.888-0.019 6.595-0.094c1.7-0.075 2.869-0.35 3.882-0.744 2.151-0.832 3.851-2.532 4.682-4.682 0.394-1.019 0.669-2.182 0.744-3.882 0.075-1.707 0.094-2.251 0.094-6.595s-0.006-4.888-0.081-6.595zM29.087 22.473c-0.069 1.563-0.331 2.407-0.55 2.969-0.538 1.394-1.644 2.5-3.038 3.038-0.563 0.219-1.413 0.481-2.969 0.55-1.688 0.075-2.194 0.094-6.464 0.094s-4.782-0.019-6.464-0.094c-1.563-0.069-2.407-0.331-2.969-0.55-0.694-0.256-1.325-0.663-1.838-1.194-0.531-0.519-0.938-1.144-1.194-1.838-0.219-0.563-0.481-1.413-0.55-2.969-0.075-1.688-0.094-2.194-0.094-6.464s0.019-4.782 0.094-6.464c0.069-1.563 0.331-2.407 0.55-2.969 0.256-0.694 0.663-1.325 1.2-1.838 0.519-0.531 1.144-0.938 1.838-1.194 0.563-0.219 1.413-0.481 2.969-0.55 1.688-0.075 2.194-0.094 6.464-0.094 4.276 0 4.782 0.019 6.464 0.094 1.563 0.069 2.407 0.331 2.969 0.55 0.694 0.256 1.325 0.662 1.838 1.194 0.531 0.519 0.938 1.144 1.194 1.838 0.219 0.563 0.481 1.413 0.55 2.969 0.075 1.688 0.094 2.194 0.094 6.464s-0.019 4.77-0.094 6.458z"></path>
<path d="M16.059 7.783c-4.538 0-8.22 3.682-8.22 8.22s3.682 8.22 8.22 8.22c4.539 0 8.22-3.682 8.22-8.22s-3.682-8.22-8.22-8.22zM16.059 21.335c-2.944 0-5.332-2.388-5.332-5.332s2.388-5.332 5.332-5.332c2.944 0 5.332 2.388 5.332 5.332s-2.388 5.332-5.332 5.332z"></path>
<path d="M26.524 7.458c0 1.060-0.859 1.919-1.919 1.919s-1.919-0.859-1.919-1.919c0-1.060 0.859-1.919 1.919-1.919s1.919 0.859 1.919 1.919z"></path>
</symbol>
<symbol id="send" viewBox="0 0 32 32">
<path d="M32 0l-32 18 10.227 3.788 15.773-14.788-11.998 16.186 0.010 0.004-0.012-0.004v8.814l5.735-6.691 7.265 2.691 5-28z"></path>
</symbol>
<symbol id="smartphone" viewBox="0 0 20 32">
<path d="M17 0h-14c-1.654 0-3 1.346-3 3v26c0 1.654 1.346 3 3 3h14c1.654 0 3-1.346 3-3v-26c0-1.654-1.346-3-3-3zM3 2h14c0.552 0 1 0.448 1 1v21h-16v-21c0-0.552 0.448-1 1-1zM17 30h-14c-0.552 0-1-0.448-1-1v-3h16v3c0 0.552-0.448 1-1 1z"></path>
<path d="M4.707 27.478c0.391 0.364 0.391 0.956 0 1.32s-1.024 0.365-1.414 0c-0.391-0.364-0.391-0.956 0-1.32s1.024-0.365 1.414 0z"></path>
</symbol>
<symbol viewBox="0 0 14 14">
<path d="M11.996 9.12268L10.1579 8.91281C9.71644 8.86216 9.28224 9.01413 8.97105 9.32531L7.63948 10.6569C5.59147 9.61479 3.91254 7.94308 2.87044 5.88782L4.20925 4.54901C4.52043 4.23782 4.6724 3.80361 4.62174 3.36217L4.41188 1.53849C4.32504 0.807567 3.70991 0.257568 2.97176 0.257568H1.71979C0.902035 0.257568 0.221776 0.93783 0.272434 1.75559C0.655984 7.93584 5.59871 12.8714 11.7717 13.2549C12.5894 13.3056 13.2697 12.6253 13.2697 11.8075V10.5556C13.2769 9.82465 12.7269 9.20952 11.996 9.12268Z" />
</symbol>
<symbol id="email" viewBox="0 0 43 32">
<path d="M38.667 0h-34.667c-2.206 0-4 1.794-4 4v24c0 2.206 1.794 4 4 4h34.667c2.206 0 4-1.794 4-4v-24c0-2.206-1.794-4-4-4zM38.667 2.667c0.181 0 0.353 0.038 0.511 0.103l-17.844 15.466-17.844-15.466c0.158-0.066 0.33-0.103 0.511-0.103h34.667zM38.667 29.333h-34.667c-0.736 0-1.333-0.598-1.333-1.333v-22.413l17.793 15.421c0.251 0.217 0.563 0.326 0.874 0.326s0.622-0.108 0.874-0.326l17.793-15.421v22.413c0 0.736-0.598 1.333-1.333 1.333z"></path>
</symbol>
<symbol id="email-2" viewBox="0 0 43 32">
<path d="M37.333 0h-32c-2.2 0-3.98 1.8-3.98 4l-0.020 24c0 2.2 1.8 4 4 4h32c2.2 0 4-1.8 4-4v-24c0-2.2-1.8-4-4-4zM36.533 8.5l-14.14 8.84c-0.64 0.4-1.48 0.4-2.12 0l-14.14-8.84c-0.5-0.32-0.8-0.86-0.8-1.44 0-1.34 1.46-2.14 2.6-1.44l13.4 8.38 13.4-8.38c1.14-0.7 2.6 0.1 2.6 1.44 0 0.58-0.3 1.12-0.8 1.44z"></path>
</symbol>
<symbol id="user" viewBox="0 0 32 32">
<path d="M16 16c4.42 0 8-3.58 8-8s-3.58-8-8-8c-4.42 0-8 3.58-8 8s3.58 8 8 8zM16 20c-5.34 0-16 2.68-16 8v2c0 1.1 0.9 2 2 2h28c1.1 0 2-0.9 2-2v-2c0-5.32-10.66-8-16-8z"></path>
</symbol>
</defs>
</svg>
